grf
version=1
nRows=17
nColumns=37
inDegrees=no
endheader
time	ground_force_1_vx	ground_force_1_vy	ground_force_1_vz	ground_force_1_px	ground_force_1_py	ground_force_1_pz	ground_moment_1_mx	ground_moment_1_my	ground_moment_1_mz	ground_force_2_vx	ground_force_2_vy	ground_force_2_vz	ground_force_2_px	ground_force_2_py	ground_force_2_pz	ground_moment_2_mx	ground_moment_2_my	ground_moment_2_mz	ground_force_3_vx	ground_force_3_vy	ground_force_3_vz	ground_force_3_px	ground_force_3_py	ground_force_3_pz	ground_moment_3_mx	ground_moment_3_my	ground_moment_3_mz	ground_force_4_vx	ground_force_4_vy	ground_force_4_vz	ground_force_4_px	ground_force_4_py	ground_force_4_pz	ground_moment_4_mx	ground_moment_4_my	ground_moment_4_mz
      3.65000000	      0.00000000	     -0.00000000	      0.00000000	      0.00000000	      0.00000000	      0.00000000	      0.00000000	      0.00000000	      0.00000000	     -0.23091869	    -11.01035118	   -770.49328613	   -309.33464557	  -1130.96908370	      0.00000000	      0.00000000	     -0.00000000	   -246.71407501	      0.00000000	     -0.00000000	      0.00000000	      0.00000000	      0.00000000	      0.00000000	      0.00000000	      0.00000000	      0.00000000	    -34.73057034	     16.12537306	     75.45471191	    604.36809857	   -562.30471535	      0.00000000	      0.00000000	     -0.00000000	   -142.96217290
      3.66000000	      0.00000000	     -0.00000000	      0.00000000	      0.00000000	      0.00000000	      0.00000000	      0.00000000	      0.00000000	      0.00000000	      2.00410461	     -9.50515652	   -762.76751709	   -309.54709745	  -1130.35906996	      0.00000000	      0.00000000	     -0.00000000	   -288.09546551	      0.00000000	     -0.00000000	      0.00000000	      0.00000000	      0.00000000	      0.00000000	      0.00000000	      0.00000000	      0.00000000	    -35.08387617	     15.97773763	     75.02335358	    605.97403255	   -567.40211536	      0.00000000	      0.00000000	      0.00000000	    174.80448472
      3.67000000	      0.00000000	     -0.00000000	      0.00000000	      0.00000000	      0.00000000	      0.00000000	      0.00000000	      0.00000000	      0.00000000	      2.63972330	     -9.31065655	   -759.04718018	   -309.59444217	  -1130.11571490	      0.00000000	      0.00000000	     -0.00000000	    -25.08400492	      0.00000000	     -0.00000000	      0.00000000	      0.00000000	      0.00000000	      0.00000000	      0.00000000	      0.00000000	      0.00000000	    -34.88880016	     16.13729591	     77.27330017	    599.59193522	   -562.30011917	      0.00000000	      0.00000000	      0.00000000	    -83.15044946
      3.68000000	      0.00000000	     -0.00000000	      0.00000000	      0.00000000	      0.00000000	      0.00000000	      0.00000000	      0.00000000	      0.00000000	      4.13187504	     -9.53695297	   -758.56646729	   -310.02895621	  -1130.25999109	      0.00000000	      0.00000000	      0.00000000	     55.21900468	      0.00000000	     -0.00000000	      0.00000000	      0.00000000	      0.00000000	      0.00000000	      0.00000000	      0.00000000	      0.00000000	    -34.85228205	     16.36165733	     76.07777405	    602.61650488	   -561.56399056	      0.00000000	     -0.00000000	     -0.00000000	   -193.11216156
      3.69000000	      0.00000000	     -0.00000000	      0.00000000	      0.00000000	      0.00000000	      0.00000000	      0.00000000	      0.00000000	      0.00000000	      5.96081305	     -8.18759537	   -760.46093750	   -310.24472077	  -1130.28201440	      0.00000000	      0.00000000	      0.00000000	    111.15963484	      0.00000000	     -0.00000000	      0.00000000	      0.00000000	      0.00000000	      0.00000000	      0.00000000	      0.00000000	      0.00000000	    -34.85572672	     16.30113716	     75.45471191	    606.47791124	   -563.11486882	      0.00000000	      0.00000000	     -0.00000000	   -224.10114846
      3.70000000	      0.00000000	     -0.00000000	      0.00000000	      0.00000000	      0.00000000	      0.00000000	      0.00000000	      0.00000000	      0.00000000	      4.98859882	     -7.73795557	   -764.64880371	   -309.05840051	  -1130.41278508	      0.00000000	      0.00000000	      0.00000000	    173.58744676	      0.00000000	     -0.00000000	      0.00000000	      0.00000000	      0.00000000	      0.00000000	      0.00000000	      0.00000000	      0.00000000	    -34.90230419	     16.12445373	     77.14420319	    600.37675910	   -560.90180890	      0.00000000	      0.00000000	     -0.00000000	   -180.90976501
      3.71000000	      0.00000000	     -0.00000000	      0.00000000	      0.00000000	      0.00000000	      0.00000000	      0.00000000	      0.00000000	      0.00000000	      1.85364771	     -8.27258778	   -767.23797607	   -307.94310774	  -1130.65015954	      0.00000000	      0.00000000	      0.00000000	    238.02354422	      0.00000000	     -0.00000000	      0.00000000	      0.00000000	      0.00000000	      0.00000000	      0.00000000	      0.00000000	      0.00000000	    -35.02862409	     15.94151231	     75.52057648	    606.17000561	   -565.41291455	      0.00000000	      0.00000000	     -0.00000000	     -0.76430278
      3.72000000	      0.00000000	     -0.00000000	      0.00000000	      0.00000000	      0.00000000	      0.00000000	      0.00000000	      0.00000000	      0.00000000	     -0.59117311	     -7.89338112	   -766.19091797	   -306.54813566	  -1130.16084731	      0.00000000	      0.00000000	      0.00000000	    186.17598414	      0.00000000	     -0.00000000	      0.00000000	      0.00000000	      0.00000000	      0.00000000	      0.00000000	      0.00000000	      0.00000000	    -34.49717190	     16.15804974	     75.44494629	    607.94321250	   -565.32489765	      0.00000000	      0.00000000	     -0.00000000	   -203.88335493
      3.73000000	      0.00000000	     -0.00000000	      0.00000000	      0.00000000	      0.00000000	      0.00000000	      0.00000000	      0.00000000	      0.00000000	     -0.46547887	     -6.59564972	   -764.55767822	   -305.30766479	  -1130.38686177	      0.00000000	      0.00000000	      0.00000000	    313.91976000	      0.00000000	     -0.00000000	      0.00000000	      0.00000000	      0.00000000	      0.00000000	      0.00000000	      0.00000000	      0.00000000	    -34.88880016	     16.13882751	     76.29025269	    600.88410919	   -564.42846340	      0.00000000	      0.00000000	     -0.00000000	    -54.19787959
      3.74000000	      0.00000000	     -0.00000000	      0.00000000	      0.00000000	      0.00000000	      0.00000000	      0.00000000	      0.00000000	      0.00000000	     -1.21279931	     -6.31135893	   -763.21270752	   -304.81695796	  -1130.43511656	      0.00000000	      0.00000000	      0.00000000	    333.52585551	      0.00000000	     -0.00000000	      0.00000000	      0.00000000	      0.00000000	      0.00000000	      0.00000000	      0.00000000	      0.00000000	    -34.81833126	     16.15634650	     76.28411102	    599.79124314	   -562.69610110	      0.00000000	      0.00000000	     -0.00000000	    -27.72483045
      3.75000000	      0.00000000	     -0.00000000	      0.00000000	      0.00000000	      0.00000000	      0.00000000	      0.00000000	      0.00000000	      0.00000000	     -0.58633018	     -6.45345068	   -759.96771240	   -304.43691753	  -1130.65885456	      0.00000000	      0.00000000	      0.00000000	    193.55583661	      0.00000000	     -0.00000000	      0.00000000	      0.00000000	      0.00000000	      0.00000000	      0.00000000	      0.00000000	      0.00000000	    -34.94061137	     16.26713867	     76.50756836	    601.18422950	   -562.44863858	      0.00000000	      0.00000000	     -0.00000000	    -42.13028850
      3.76000000	      0.00000000	     -0.00000000	      0.00000000	      0.00000000	      0.00000000	      0.00000000	      0.00000000	      0.00000000	      0.00000000	      1.62296224	     -6.18431282	   -757.35382080	   -304.39494459	  -1130.21743968	      0.00000000	      0.00000000	      0.00000000	    319.52595492	      0.00000000	     -0.00000000	      0.00000000	      0.00000000	      0.00000000	      0.00000000	      0.00000000	      0.00000000	      0.00000000	    -34.79934549	     16.42703742	     75.39560699	    604.63881632	   -561.70982031	      0.00000000	      0.00000000	     -0.00000000	   -222.49520556
      3.77000000	      0.00000000	     -0.00000000	      0.00000000	      0.00000000	      0.00000000	      0.00000000	      0.00000000	      0.00000000	      0.00000000	      3.74544597	     -5.63248348	   -754.81396484	   -304.49671833	  -1130.12848196	      0.00000000	      0.00000000	      0.00000000	    187.99775503	      0.00000000	     -0.00000000	      0.00000000	      0.00000000	      0.00000000	      0.00000000	      0.00000000	      0.00000000	      0.00000000	    -34.87037135	     16.26687545	     75.03144836	    606.91144194	   -564.25611490	      0.00000000	      0.00000000	     -0.00000000	   -186.32810828
      3.78000000	      0.00000000	     -0.00000000	      0.00000000	      0.00000000	      0.00000000	      0.00000000	      0.00000000	      0.00000000	      0.00000000	      6.58419371	     -4.45766401	   -753.47497559	   -304.91050110	  -1130.84465012	      0.00000000	      0.00000000	      0.00000000	     24.46384434	      0.00000000	     -0.00000000	      0.00000000	      0.00000000	      0.00000000	      0.00000000	      0.00000000	      0.00000000	      0.00000000	    -34.81697324	     15.97913188	     75.38808441	    605.92279933	   -562.80479922	      0.00000000	      0.00000000	     -0.00000000	    -69.64927260
      3.79000000	      0.00000000	     -0.00000000	      0.00000000	      0.00000000	      0.00000000	      0.00000000	      0.00000000	      0.00000000	      0.00000000	      9.43877888	     -3.20869446	   -756.58386230	   -305.13345848	  -1130.74203085	      0.00000000	      0.00000000	      0.00000000	   -205.60650728	      0.00000000	     -0.00000000	      0.00000000	      0.00000000	      0.00000000	      0.00000000	      0.00000000	      0.00000000	      0.00000000	    -34.81739666	     16.12272567	     75.87542725	    605.24714115	   -562.37472811	      0.00000000	     -0.00000000	     -0.00000000	   -175.61641325
      3.80000000	      0.00000000	     -0.00000000	      0.00000000	      0.00000000	      0.00000000	      0.00000000	      0.00000000	      0.00000000	      0.00000000	     10.45574188	     -3.29737520	   -766.04724121	   -305.31969916	  -1131.21298777	      0.00000000	      0.00000000	     -0.00000000	   -309.82411105	      0.00000000	     -0.00000000	      0.00000000	      0.00000000	      0.00000000	      0.00000000	      0.00000000	      0.00000000	      0.00000000	    -34.69202280	     16.33849829	     75.59524536	    603.77141556	   -563.82509207	      0.00000000	      0.00000000	     -0.00000000	   -173.55091066
      3.81000000	      0.00000000	     -0.00000000	      0.00000000	      0.00000000	      0.00000000	      0.00000000	      0.00000000	      0.00000000	      0.00000000	     11.75786972	     -3.77915430	   -769.72045898	   -304.57940227	  -1131.40430795	      0.00000000	      0.00000000	     -0.00000000	   -535.16076076	      0.00000000	     -0.00000000	      0.00000000	      0.00000000	      0.00000000	      0.00000000	      0.00000000	      0.00000000	      0.00000000	    -34.76363614	     16.05088538	     75.52402496	    603.32476151	   -565.84596214	      0.00000000	      0.00000000	      0.00000000	     20.95896627
